<svg width="50" height="50" viewBox="0 0 50 50" fill="none" xmlns="http://www.w3.org/2000/svg">
<path d="M42.6739 7.31805C41.5798 6.22395 40.3815 5.23004 39.1071 4.35636C38.1933 3.73116 36.9469 3.96361 36.3217 4.87736C35.6965 5.79112 35.929 7.03751 36.8427 7.66271C37.9128 8.39612 38.9227 9.23373 39.8405 10.1515C43.8041 14.1111 45.9883 19.3852 45.9883 24.996C45.9883 36.5702 36.5702 45.9883 24.996 45.9883C13.4218 45.9883 4.00769 36.5742 4.00769 24.996C4.00769 13.4178 13.4258 4.00769 25 4.00769C26.1061 4.00769 27.0038 3.10997 27.0038 2.00385C27.0038 0.897724 26.1061 0 25 0C11.2135 0 0 11.2135 0 25C0 38.7865 11.2135 50 25 50C38.7865 50 50 38.7865 50 24.996C50 18.3152 47.399 12.0391 42.6739 7.32206V7.31805Z" fill="#BBBBBB"/>
<path d="M18.9003 12.6643C17.177 10.941 14.3876 10.941 12.6643 12.6643C10.941 14.3876 10.941 17.177 12.6643 18.9003L18.764 25L12.6643 31.0997C10.941 32.823 10.941 35.6124 12.6643 37.3357C13.526 38.1973 14.6521 38.6262 15.7823 38.6262C16.9125 38.6262 18.0386 38.1973 18.9003 37.3357L25 31.236L31.0997 37.3357C31.9614 38.1973 33.0875 38.6262 34.2177 38.6262C35.3479 38.6262 36.474 38.1973 37.3357 37.3357C39.059 35.6124 39.059 32.823 37.3357 31.0997L31.236 25L37.3357 18.9003C39.059 17.177 39.059 14.3876 37.3357 12.6643C35.6124 10.941 32.823 10.941 31.0997 12.6643L25 18.764L18.9003 12.6643Z" fill="#BBBBBB"/>
</svg>
