<svg width="33" height="30" viewBox="0 0 33 30" fill="none" xmlns="http://www.w3.org/2000/svg">
<path d="M0.619974 18.0174L0.621058 18.0176L0.619974 18.0174ZM0.619974 18.0174L0.618298 18.017L0.619974 18.0174ZM0.623899 18.0202L0.623421 18.0209L0.627203 18.0157L0.625266 18.0183L0.62507 18.0186L0.624464 18.0194L0.623899 18.0202Z" fill="#FFB11D" stroke="white" stroke-width="4"/>
<path d="M17.7354 15.55L24.5882 19.3C24.6841 19.3509 24.7913 19.3767 24.8997 19.375C25.0398 19.3786 25.1769 19.3348 25.289 19.2505C25.4012 19.1663 25.4818 19.0466 25.5178 18.9108C25.5538 18.775 25.5431 18.631 25.4875 18.502C25.4319 18.3731 25.3345 18.2667 25.2112 18.2L18.6699 14.6281V4.375C18.6699 4.20924 18.6042 4.05027 18.4874 3.93306C18.3706 3.81585 18.2121 3.75 18.0469 3.75C17.8816 3.75 17.7232 3.81585 17.6064 3.93306C17.4895 4.05027 17.4239 4.20924 17.4239 4.375V15C17.4223 15.1112 17.4504 15.2208 17.5052 15.3175C17.5599 15.4141 17.6394 15.4944 17.7354 15.55Z" fill="white"/>
<mask id="path-3-inside-1_1_370" fill="white">
<path d="M14.3272 1.7375C14.3818 1.73898 14.4363 1.73267 14.4891 1.71875C14.6425 1.68009 14.7755 1.58435 14.8611 1.45095C14.9468 1.31755 14.9786 1.15647 14.9502 1.00038C14.9218 0.844294 14.8353 0.704882 14.7082 0.610419C14.5812 0.515956 14.423 0.473514 14.2659 0.491701C14.1088 0.509887 13.9645 0.587342 13.8622 0.708355C13.7599 0.829368 13.7073 0.984881 13.7151 1.14335C13.7229 1.30183 13.7905 1.4514 13.9041 1.56173C14.0178 1.67206 14.169 1.7349 14.3272 1.7375Z"/>
</mask>
<path d="M14.3272 1.7375C14.3818 1.73898 14.4363 1.73267 14.4891 1.71875C14.6425 1.68009 14.7755 1.58435 14.8611 1.45095C14.9468 1.31755 14.9786 1.15647 14.9502 1.00038C14.9218 0.844294 14.8353 0.704882 14.7082 0.610419C14.5812 0.515956 14.423 0.473514 14.2659 0.491701C14.1088 0.509887 13.9645 0.587342 13.8622 0.708355C13.7599 0.829368 13.7073 0.984881 13.7151 1.14335C13.7229 1.30183 13.7905 1.4514 13.9041 1.56173C14.0178 1.67206 14.169 1.7349 14.3272 1.7375Z" fill="white"/>
<path d="M14.3272 1.7375L14.4358 -2.26103L14.4143 -2.26161L14.3928 -2.26196L14.3272 1.7375ZM14.4891 1.71875L13.5116 -2.15997L13.4908 -2.15472L13.47 -2.14925L14.4891 1.71875ZM14.2185 5.73602C14.6534 5.74784 15.0877 5.69755 15.5082 5.58674L13.47 -2.14925C13.7849 -2.23222 14.1101 -2.26988 14.4358 -2.26103L14.2185 5.73602ZM15.4666 5.59747C16.608 5.30983 17.594 4.59837 18.2274 3.61158L11.4949 -0.709681C11.957 -1.42967 12.6771 -1.94965 13.5116 -2.15997L15.4666 5.59747ZM18.2274 3.61158C18.8605 2.62519 19.0951 1.43602 18.8856 0.284551L11.0148 1.71621C10.8621 0.876917 11.033 0.00990883 11.4949 -0.709681L18.2274 3.61158ZM18.8856 0.284551C18.6762 -0.867091 18.0374 -1.89893 17.0946 -2.59974L12.3219 3.82058C11.6333 3.3087 11.1675 2.55568 11.0148 1.71621L18.8856 0.284551ZM17.0946 -2.59974C16.1515 -3.30085 14.9757 -3.61717 13.806 -3.48177L14.7259 4.46517C13.8704 4.5642 13.0108 4.33276 12.3219 3.82058L17.0946 -2.59974ZM13.806 -3.48177C12.6364 -3.34638 11.5649 -2.77007 10.8073 -1.87384L16.9171 3.29055C16.3641 3.94476 15.5813 4.36615 14.7259 4.46517L13.806 -3.48177ZM10.8073 -1.87384C10.0501 -0.977988 9.6625 0.170882 9.71993 1.33967L17.7103 0.947038C17.7521 1.79888 17.4697 2.63672 16.9171 3.29055L10.8073 -1.87384ZM9.71993 1.33967C9.77737 2.50851 10.2758 3.61426 11.118 4.43181L16.6903 -1.30834C17.3051 -0.711467 17.6684 0.095145 17.7103 0.947038L9.71993 1.33967ZM11.118 4.43181C11.9605 5.24971 13.0841 5.71763 14.2615 5.73696L14.3928 -2.26196C15.2539 -2.24783 16.0751 -1.90559 16.6903 -1.30834L11.118 4.43181Z" fill="white" mask="url(#path-3-inside-1_1_370)"/>
<mask id="path-5-inside-2_1_370" fill="white">
<path d="M10.8821 3.17812C10.9916 3.17793 11.099 3.14883 11.1936 3.09375C11.2681 3.05468 11.3339 3.0009 11.3871 2.93565C11.4403 2.87041 11.4798 2.79504 11.5032 2.71409C11.5266 2.63313 11.5334 2.54826 11.5233 2.46458C11.5132 2.3809 11.4863 2.30015 11.4442 2.22717C11.4022 2.15419 11.3458 2.0905 11.2786 2.03993C11.2114 1.98936 11.1347 1.95295 11.0531 1.93289C10.9715 1.91284 10.8867 1.90955 10.8038 1.92323C10.7208 1.93691 10.6416 1.96728 10.5706 2.0125C10.4522 2.08143 10.3597 2.1876 10.3074 2.31458C10.2552 2.44156 10.246 2.58228 10.2815 2.71497C10.317 2.84766 10.395 2.96494 10.5036 3.04866C10.6122 3.13238 10.7452 3.17788 10.8821 3.17812Z"/>
</mask>
<path d="M10.8821 3.17812C10.9916 3.17793 11.099 3.14883 11.1936 3.09375C11.2681 3.05468 11.3339 3.0009 11.3871 2.93565C11.4403 2.87041 11.4798 2.79504 11.5032 2.71409C11.5266 2.63313 11.5334 2.54826 11.5233 2.46458C11.5132 2.3809 11.4863 2.30015 11.4442 2.22717C11.4022 2.15419 11.3458 2.0905 11.2786 2.03993C11.2114 1.98936 11.1347 1.95295 11.0531 1.93289C10.9715 1.91284 10.8867 1.90955 10.8038 1.92323C10.7208 1.93691 10.6416 1.96728 10.5706 2.0125C10.4522 2.08143 10.3597 2.1876 10.3074 2.31458C10.2552 2.44156 10.246 2.58228 10.2815 2.71497C10.317 2.84766 10.395 2.96494 10.5036 3.04866C10.6122 3.13238 10.7452 3.17788 10.8821 3.17812Z" fill="white"/>
<path d="M10.8821 3.17812L10.875 7.17812L10.8821 7.17813L10.8893 7.17812L10.8821 3.17812ZM11.1936 3.09375L9.33484 -0.448124L9.25733 -0.407452L9.18169 -0.363428L11.1936 3.09375ZM10.5706 2.0125L12.5826 5.46969L12.6529 5.42877L12.7215 5.38502L10.5706 2.0125ZM10.8893 7.17812C11.7037 7.17667 12.5026 6.96001 13.2056 6.55093L9.18169 -0.363428C9.69534 -0.662353 10.2794 -0.820808 10.875 -0.821869L10.8893 7.17812ZM13.0524 6.63562C13.6055 6.34539 14.0934 5.94639 14.4873 5.46329L8.28691 0.408024C8.5744 0.0554091 8.9307 -0.236032 9.33484 -0.448124L13.0524 6.63562ZM14.4873 5.46329C14.8811 4.9802 15.1729 4.42294 15.3457 3.82526L7.66062 1.60291C7.78663 1.16714 7.99943 0.760617 8.28691 0.408024L14.4873 5.46329ZM15.3457 3.82526C15.5186 3.22758 15.5691 2.60126 15.4943 1.98378L7.5523 2.94538C7.4978 2.49526 7.5346 2.03868 7.66062 1.60291L15.3457 3.82526ZM15.4943 1.98378C15.4195 1.36631 15.221 0.769835 14.9101 0.230231L7.97836 4.22411C7.75155 3.83046 7.6068 3.3955 7.5523 2.94538L15.4943 1.98378ZM14.9101 0.230231C14.5992 -0.309394 14.1821 -0.78127 13.6834 -1.15647L8.87384 5.23633C8.50956 4.96227 8.20518 4.61778 7.97836 4.22411L14.9101 0.230231ZM13.6834 -1.15647C13.1847 -1.53171 12.6147 -1.80236 12.0076 -1.95154L10.0985 5.81733C9.65468 5.70826 9.23815 5.51042 8.87384 5.23633L13.6834 -1.15647ZM12.0076 -1.95154C11.4005 -2.10073 10.7694 -2.1252 10.1525 -2.0234L11.455 5.86986C11.0039 5.9443 10.5424 5.9264 10.0985 5.81733L12.0076 -1.95154ZM10.1525 -2.0234C9.5356 -1.9216 8.94623 -1.69575 8.41981 -1.36002L12.7215 5.38502C12.3369 5.63031 11.9061 5.79543 11.455 5.86986L10.1525 -2.0234ZM8.55872 -1.44469C7.67907 -0.932772 6.99458 -0.145902 6.6085 0.792081L14.0063 3.83708C13.7248 4.5211 13.2253 5.09564 12.5826 5.46969L8.55872 -1.44469ZM6.6085 0.792081C6.22249 1.72988 6.15541 2.76835 6.41711 3.74766L14.1459 1.68228C14.3367 2.3962 14.2878 3.15324 14.0063 3.83708L6.6085 0.792081ZM6.41711 3.74766C6.67885 4.72711 7.25562 5.59524 8.06101 6.21628L12.9462 -0.118959C13.5344 0.334643 13.9551 0.968216 14.1459 1.68228L6.41711 3.74766ZM8.06101 6.21628C8.86663 6.8375 9.8556 7.17631 10.875 7.17812L10.8892 -0.821869C11.6348 -0.820545 12.3577 -0.572735 12.9462 -0.118959L8.06101 6.21628Z" fill="white" mask="url(#path-5-inside-2_1_370)"/>
<mask id="path-7-inside-3_1_370" fill="white">
<path d="M7.91059 5.46249C8.05481 5.46238 8.19453 5.41207 8.3059 5.32014C8.41727 5.22822 8.4934 5.10038 8.52131 4.95843C8.54922 4.81648 8.52717 4.66921 8.45892 4.54175C8.39068 4.41429 8.28047 4.31453 8.14709 4.25949C8.01372 4.20444 7.86544 4.19753 7.72755 4.23993C7.58966 4.28232 7.4707 4.3714 7.39097 4.49197C7.31124 4.61253 7.27567 4.75711 7.29034 4.90105C7.305 5.04498 7.36899 5.17936 7.47139 5.28124C7.58819 5.39747 7.74608 5.46263 7.91059 5.46249Z"/>
</mask>
<path d="M7.91059 5.46249C8.05481 5.46238 8.19453 5.41207 8.3059 5.32014C8.41727 5.22822 8.4934 5.10038 8.52131 4.95843C8.54922 4.81648 8.52717 4.66921 8.45892 4.54175C8.39068 4.41429 8.28047 4.31453 8.14709 4.25949C8.01372 4.20444 7.86544 4.19753 7.72755 4.23993C7.58966 4.28232 7.4707 4.3714 7.39097 4.49197C7.31124 4.61253 7.27567 4.75711 7.29034 4.90105C7.305 5.04498 7.36899 5.17936 7.47139 5.28124C7.58819 5.39747 7.74608 5.46263 7.91059 5.46249Z" fill="white"/>
<path d="M7.91059 5.46249L7.9138 9.46249L7.91059 5.46249ZM7.47139 5.28124L10.2928 2.44579L7.47139 5.28124ZM7.9138 9.46249C8.98751 9.46163 10.0259 9.08698 10.8521 8.40508L5.7597 2.2352C6.36313 1.73716 7.12212 1.46312 7.90739 1.46249L7.9138 9.46249ZM10.8521 8.40508C11.678 7.72342 12.2403 6.77747 12.4462 5.73002L4.59643 4.18684C4.74654 3.42329 5.15654 2.73303 5.7597 2.2352L10.8521 8.40508ZM12.4462 5.73002C12.6521 4.6827 12.4896 3.59569 11.9853 2.65372L4.93254 6.42978C4.5647 5.74273 4.44635 4.95026 4.59643 4.18684L12.4462 5.73002ZM11.9853 2.65372C11.4808 1.71148 10.6645 0.971135 9.67298 0.561961L6.62121 7.95701C5.89645 7.65792 5.30053 7.11709 4.93254 6.42978L11.9853 2.65372ZM9.67298 0.561961C8.68122 0.152688 7.57785 0.101154 6.552 0.416567L8.9031 8.06329C8.15302 8.29391 7.34621 8.2562 6.62121 7.95701L9.67298 0.561961ZM6.552 0.416567C5.52634 0.73192 4.6444 1.39361 4.05455 2.28554L10.7274 6.69839C10.297 7.3492 9.65297 7.83273 8.9031 8.06329L6.552 0.416567ZM4.05455 2.28554C3.46488 3.1772 3.20277 4.24477 3.31094 5.30649L11.2697 4.4956C11.3486 5.26945 11.1576 6.04786 10.7274 6.69839L4.05455 2.28554ZM3.31094 5.30649C3.41912 6.36828 3.89132 7.36177 4.65 8.1167L10.2928 2.44579C10.8467 2.99694 11.1909 3.72169 11.2697 4.4956L3.31094 5.30649ZM4.65 8.1167C5.51581 8.97821 6.68885 9.46347 7.9138 9.46249L7.90739 1.46249C8.80331 1.46178 9.66057 1.81673 10.2928 2.44579L4.65 8.1167Z" fill="white" mask="url(#path-7-inside-3_1_370)"/>
<path d="M5.12856 8.19502C5.16988 8.24571 5.21881 8.28947 5.27349 8.32479C5.2877 8.33397 5.30229 8.34258 5.31723 8.35059C5.31882 8.35144 5.32041 8.35228 5.32201 8.35312C5.3795 8.38733 5.442 8.41153 5.50688 8.425C5.54835 8.43361 5.59079 8.43783 5.6335 8.43749C5.678 8.43741 5.72208 8.43256 5.76504 8.42317C5.85016 8.40456 5.9309 8.36814 6.00177 8.31579C6.00522 8.31324 6.00865 8.31066 6.01205 8.30803C6.07821 8.25701 6.13304 8.19354 6.1738 8.1217C6.19994 8.07566 6.22029 8.02617 6.23414 7.97434M5.12856 8.19502L6.10178 7.40154C6.14609 7.45248 6.18216 7.51062 6.20823 7.57395C6.21481 7.58995 6.22071 7.60616 6.22592 7.62255C6.25203 7.70464 6.26087 7.79111 6.25212 7.87648C6.24874 7.90937 6.24276 7.94209 6.23414 7.97434M5.12856 8.19502C5.09348 8.15199 5.06435 8.10456 5.04187 8.05403C5.03027 8.02794 5.02043 8.00102 5.01246 7.97345C4.98905 7.8925 4.98221 7.80763 4.99234 7.72395C4.99551 7.69775 5.00033 7.67182 5.00674 7.64634C5.00674 7.64634 5.00674 7.64634 5.00674 7.64634C5.02081 7.59045 5.04254 7.53666 5.07142 7.48654M5.12856 8.19502L5.07142 7.48654M6.23414 7.97434L6.22632 7.97225L6.23414 7.97434ZM5.07142 7.48654C5.1131 7.4142 5.1688 7.35099 5.23524 7.30063M5.07142 7.48654L5.23524 7.30063M5.945 7.27187C5.95007 7.27482 5.95509 7.27784 5.96006 7.28092L5.945 7.27187ZM5.945 7.27187C5.93113 7.26303 5.91695 7.25475 5.90248 7.24706M5.945 7.27187L5.90248 7.24706M5.90248 7.24706C5.84294 7.21541 5.77859 7.19361 5.71189 7.1826M5.90248 7.24706L5.71189 7.1826M5.71189 7.1826C5.68515 7.17819 5.65822 7.17554 5.63126 7.17465M5.71189 7.1826L5.63126 7.17465M5.63126 7.17465C5.62865 7.17457 5.62603 7.1745 5.62341 7.17444M5.63126 7.17465L5.62341 7.17444M5.62341 7.17444C5.56938 7.17335 5.5153 7.1793 5.46256 7.19226M5.62341 7.17444L5.46256 7.19226M5.46256 7.19226C5.38096 7.21232 5.30423 7.24872 5.23701 7.2993M5.46256 7.19226L5.23701 7.2993M5.23701 7.2993C5.23642 7.29974 5.23583 7.30019 5.23524 7.30063M5.23701 7.2993L5.23524 7.30063" fill="white" stroke="white" stroke-width="4"/>
<mask id="path-10-inside-4_1_370" fill="white">
<path d="M4.02931 11.875C4.08242 11.8874 4.13676 11.8937 4.19129 11.8937C4.34942 11.8912 4.50065 11.8283 4.61431 11.718C4.72796 11.6076 4.79554 11.4581 4.80333 11.2996C4.81111 11.1411 4.75853 10.9856 4.65624 10.8646C4.55395 10.7436 4.40962 10.6661 4.2525 10.648C4.09539 10.6298 3.93726 10.6722 3.81019 10.7667C3.68312 10.8611 3.59662 11.0005 3.56823 11.1566C3.53984 11.3127 3.57168 11.4738 3.65731 11.6072C3.74293 11.7406 3.87592 11.8363 4.02931 11.875Z"/>
</mask>
<path d="M4.02931 11.875C4.08242 11.8874 4.13676 11.8937 4.19129 11.8937C4.34942 11.8912 4.50065 11.8283 4.61431 11.718C4.72796 11.6076 4.79554 11.4581 4.80333 11.2996C4.81111 11.1411 4.75853 10.9856 4.65624 10.8646C4.55395 10.7436 4.40962 10.6661 4.2525 10.648C4.09539 10.6298 3.93726 10.6722 3.81019 10.7667C3.68312 10.8611 3.59662 11.0005 3.56823 11.1566C3.53984 11.3127 3.57168 11.4738 3.65731 11.6072C3.74293 11.7406 3.87592 11.8363 4.02931 11.875Z" fill="white"/>
<path d="M4.02931 11.875L3.0518 15.7537L3.08621 15.7624L3.12077 15.7705L4.02931 11.875ZM4.19129 11.8937L4.18594 15.8937L4.22145 15.8938L4.25695 15.8932L4.19129 11.8937ZM3.12077 15.7705C3.46993 15.8519 3.82729 15.8933 4.18594 15.8937L4.19663 7.89375C4.44624 7.89409 4.69491 7.92288 4.93785 7.97954L3.12077 15.7705ZM4.25695 15.8932C5.43433 15.8739 6.55792 15.406 7.40047 14.5881L1.82815 8.84791C2.44338 8.25067 3.26451 7.90842 4.12563 7.89429L4.25695 15.8932ZM7.40047 14.5881C8.24264 13.7705 8.74107 12.6648 8.79851 11.4959L0.808146 11.1033C0.850006 10.2514 1.21329 9.44479 1.82815 8.84791L7.40047 14.5881ZM8.79851 11.4959C8.85594 10.3271 8.46835 9.17826 7.71112 8.28241L1.60136 13.4468C1.04871 12.793 0.766288 11.9551 0.808146 11.1033L8.79851 11.4959ZM7.71112 8.28241C6.95356 7.38617 5.88205 6.80987 4.71246 6.67448L3.79254 14.6214C2.93718 14.5224 2.15435 14.101 1.60136 13.4468L7.71112 8.28241ZM4.71246 6.67448C3.54275 6.53908 2.36693 6.8554 1.4238 7.55651L6.19659 13.9768C5.5076 14.489 4.64803 14.7204 3.79254 14.6214L4.71246 6.67448ZM1.4238 7.55651C0.481065 8.25733 -0.157724 9.28917 -0.367199 10.4408L7.50365 11.8725C7.35096 12.7119 6.88518 13.4649 6.19659 13.9768L1.4238 7.55651ZM-0.367199 10.4408C-0.576642 11.5923 -0.342076 12.7814 0.291051 13.7678L7.02356 9.44657C7.48544 10.1662 7.65631 11.0332 7.50365 11.8725L-0.367199 10.4408ZM0.291051 13.7678C0.924425 14.7546 1.91049 15.4661 3.0518 15.7537L5.00683 7.99628C5.84136 8.2066 6.56143 8.72658 7.02356 9.44657L0.291051 13.7678Z" fill="white" mask="url(#path-10-inside-4_1_370)"/>
</svg>
