<svg width="23" height="30" viewBox="0 0 23 30" fill="none" xmlns="http://www.w3.org/2000/svg">
<mask id="path-1-inside-1_1_324" fill="white">
<path d="M11.5 0C6.70833 0 2.875 3.75 2.875 8.4375V12.1875C1.24583 12.1875 0 13.4062 0 15V27.1875C0 28.7812 1.24583 30 2.875 30H20.125C21.7542 30 23 28.7812 23 27.1875V15C23 13.4062 21.7542 12.1875 20.125 12.1875V8.4375C20.125 3.75 16.2917 0 11.5 0ZM21.0833 15V27.1875C21.0833 27.75 20.7 28.125 20.125 28.125H2.875C2.3 28.125 1.91667 27.75 1.91667 27.1875V15C1.91667 14.4375 2.3 14.0625 2.875 14.0625H3.83333H19.1667H20.125C20.7 14.0625 21.0833 14.4375 21.0833 15ZM4.79167 12.1875V8.4375C4.79167 4.78125 7.7625 1.875 11.5 1.875C15.2375 1.875 18.2083 4.78125 18.2083 8.4375V12.1875H4.79167Z"/>
</mask>
<path d="M11.5 0C6.70833 0 2.875 3.75 2.875 8.4375V12.1875C1.24583 12.1875 0 13.4062 0 15V27.1875C0 28.7812 1.24583 30 2.875 30H20.125C21.7542 30 23 28.7812 23 27.1875V15C23 13.4062 21.7542 12.1875 20.125 12.1875V8.4375C20.125 3.75 16.2917 0 11.5 0ZM21.0833 15V27.1875C21.0833 27.75 20.7 28.125 20.125 28.125H2.875C2.3 28.125 1.91667 27.75 1.91667 27.1875V15C1.91667 14.4375 2.3 14.0625 2.875 14.0625H3.83333H19.1667H20.125C20.7 14.0625 21.0833 14.4375 21.0833 15ZM4.79167 12.1875V8.4375C4.79167 4.78125 7.7625 1.875 11.5 1.875C15.2375 1.875 18.2083 4.78125 18.2083 8.4375V12.1875H4.79167Z" fill="#FFB11D"/>
<path d="M2.875 12.1875V27.2463H17.9338V12.1875H2.875ZM20.125 12.1875H5.06618V27.2463H20.125V12.1875ZM4.79167 12.1875H-10.2672V27.2463H4.79167V12.1875ZM18.2083 12.1875V27.2463H33.2672V12.1875H18.2083ZM11.5 -15.0588C-1.2947 -15.0588 -12.1838 -4.87706 -12.1838 8.4375H17.9338C17.9338 12.3771 14.7114 15.0588 11.5 15.0588V-15.0588ZM-12.1838 8.4375V12.1875H17.9338V8.4375H-12.1838ZM2.875 -2.87132C-6.75719 -2.87132 -15.0588 4.77919 -15.0588 15H15.0588C15.0588 22.0333 9.24886 27.2463 2.875 27.2463V-2.87132ZM-15.0588 15V27.1875H15.0588V15H-15.0588ZM-15.0588 27.1875C-15.0588 37.4083 -6.75719 45.0588 2.875 45.0588V14.9412C9.24886 14.9412 15.0588 20.1542 15.0588 27.1875H-15.0588ZM2.875 45.0588H20.125V14.9412H2.875V45.0588ZM20.125 45.0588C29.7572 45.0588 38.0588 37.4083 38.0588 27.1875H7.94118C7.94118 20.1542 13.7511 14.9412 20.125 14.9412V45.0588ZM38.0588 27.1875V15H7.94118V27.1875H38.0588ZM38.0588 15C38.0588 4.77919 29.7572 -2.87132 20.125 -2.87132V27.2463C13.7511 27.2463 7.94118 22.0333 7.94118 15H38.0588ZM35.1838 12.1875V8.4375H5.06618V12.1875H35.1838ZM35.1838 8.4375C35.1838 -4.87706 24.2947 -15.0588 11.5 -15.0588V15.0588C8.28864 15.0588 5.06618 12.3771 5.06618 8.4375H35.1838ZM6.02451 15V27.1875H36.1422V15H6.02451ZM6.02451 27.1875C6.02451 23.9459 7.20394 20.1209 10.2892 17.1026C13.345 14.1133 17.0885 13.0662 20.125 13.0662V43.1838C23.7365 43.1838 27.9592 41.9492 31.3503 38.6317C34.7711 35.2854 36.1422 30.9916 36.1422 27.1875H6.02451ZM20.125 13.0662H2.875V43.1838H20.125V13.0662ZM2.875 13.0662C5.91152 13.0662 9.65504 14.1133 12.7108 17.1026C15.7961 20.1209 16.9755 23.9459 16.9755 27.1875H-13.1422C-13.1422 30.9916 -11.7711 35.2854 -8.35034 38.6317C-4.95921 41.9492 -0.736523 43.1838 2.875 43.1838V13.0662ZM16.9755 27.1875V15H-13.1422V27.1875H16.9755ZM16.9755 15C16.9755 18.2416 15.7961 22.0666 12.7108 25.0849C9.65504 28.0742 5.91152 29.1213 2.875 29.1213V-0.996324C-0.736523 -0.996324 -4.95921 0.238345 -8.35034 3.55575C-11.7711 6.90211 -13.1422 11.1959 -13.1422 15H16.9755ZM2.875 29.1213H3.83333V-0.996324H2.875V29.1213ZM3.83333 29.1213H19.1667V-0.996324H3.83333V29.1213ZM19.1667 29.1213H20.125V-0.996324H19.1667V29.1213ZM20.125 29.1213C17.0885 29.1213 13.345 28.0742 10.2892 25.0849C7.20394 22.0666 6.02451 18.2416 6.02451 15H36.1422C36.1422 11.1959 34.7711 6.90211 31.3503 3.55575C27.9592 0.238345 23.7365 -0.996324 20.125 -0.996324V29.1213ZM19.8505 12.1875V8.4375H-10.2672V12.1875H19.8505ZM19.8505 8.4375C19.8505 13.4083 15.7655 16.9338 11.5 16.9338V-13.1838C-0.240529 -13.1838 -10.2672 -3.84581 -10.2672 8.4375H19.8505ZM11.5 16.9338C7.23447 16.9338 3.14951 13.4083 3.14951 8.4375H33.2672C33.2672 -3.84581 23.2405 -13.1838 11.5 -13.1838V16.9338ZM3.14951 8.4375V12.1875H33.2672V8.4375H3.14951ZM18.2083 -2.87132H4.79167V27.2463H18.2083V-2.87132Z" fill="white" mask="url(#path-1-inside-1_1_324)"/>
</svg>
