<svg width="26" height="27" viewBox="0 0 26 27" fill="none" xmlns="http://www.w3.org/2000/svg">
<path fill-rule="evenodd" clip-rule="evenodd" d="M0 13.1512C0 5.99896 5.84771 0.151245 13 0.151245C20.1523 0.151245 26 5.99896 26 13.1512C26 20.3035 20.1523 26.1512 13 26.1512C5.84771 26.1512 0 20.3035 0 13.1512ZM13 2.15125C6.95228 2.15125 2 7.10353 2 13.1512C2 19.199 6.95228 24.1512 13 24.1512C19.0477 24.1512 24 19.199 24 13.1512C24 7.10353 19.0477 2.15125 13 2.15125ZM18.8077 9.04867C19.1979 9.43954 19.1974 10.0727 18.8065 10.4629L12.0025 17.2549C11.6119 17.6448 10.9792 17.6445 10.5889 17.2543L7.19289 13.8583C6.80237 13.4677 6.80237 12.8346 7.19289 12.444C7.58342 12.0535 8.21658 12.0535 8.60711 12.444L11.2966 15.1336L17.3935 9.04742C17.7844 8.65724 18.4176 8.6578 18.8077 9.04867Z" fill="url(#paint0_linear_5_89)"/>
<defs>
<linearGradient id="paint0_linear_5_89" x1="9.42034" y1="15.1851" x2="18.1254" y2="9.81565" gradientUnits="userSpaceOnUse">
<stop stop-color="#EF3F4D"/>
<stop offset="1" stop-color="#FBCC55"/>
</linearGradient>
</defs>
</svg>
