<svg width="321" height="32" viewBox="0 0 321 32" fill="none" xmlns="http://www.w3.org/2000/svg">
<path d="M74.1205 32H67.9665C65.2514 26.113 61.921 18.9033 60.5092 15.7176C59.4593 13.3144 58.4095 10.9112 57.3235 8.50795C56.509 6.70087 55.061 5.75076 53.1424 5.75076C51.2237 5.75076 49.8119 6.70087 48.9974 8.50795C48.4906 9.58848 48.02 10.6876 47.5313 11.7868C45.4135 16.556 41.4496 25.4051 38.5174 31.9814H32.4357C32.8701 30.994 33.3045 30.0066 33.757 29.0193C36.11 23.7098 41.5039 11.675 43.8569 6.36554C45.1782 3.38479 47.3141 1.33552 50.373 0.422665C55.2601 -1.03045 60.2015 1.35415 62.3554 6.17924C64.9618 12.029 70.4462 23.8588 74.1386 32H74.1205ZM53.2148 23.0391L57.2873 32H49.2689L53.2148 23.0391Z" fill="white"/>
<path d="M151.363 16.738C151.31 20.2042 150.378 23.4109 148.335 26.2099C146.579 28.6381 144.268 30.2507 141.49 31.1775C139.878 31.715 138.211 31.9931 136.509 31.9931C135.004 31.9931 133.481 32.0487 131.993 31.8448C126.17 31.0848 122.066 27.9522 119.934 22.2061C119.182 20.1671 118.931 18.0355 118.931 15.8668C118.931 13.939 118.931 12.0113 118.931 10.065C118.931 8.93433 118.931 1.13069 118.931 0H124.468C124.468 3.24379 124.468 13.142 124.468 16.3858C124.468 18.3506 124.916 20.2227 125.865 21.928C127.173 24.245 129.144 25.6167 131.653 26.0801C134.072 26.525 136.527 26.562 138.946 26.006C142.332 25.2274 144.447 23.0031 145.414 19.5925C145.773 18.3691 145.88 17.1087 145.88 15.8297V0.0185359H151.363C151.363 3.37355 151.381 13.383 151.328 16.7565L151.363 16.738Z" fill="white"/>
<path d="M27.4268 20.089C25.7373 21.2061 23.8502 21.6902 21.8552 21.6902C16.5172 21.6902 11.1612 21.6902 5.82325 21.6902H5.49974V22.0253C5.49974 24.3526 5.49974 26.6799 5.49974 29.0071C5.49974 29.0071 5.49974 29.0071 5.49974 29.0257V31.9302H3.36095C3.00149 32.0233 2.62406 32.0233 2.22865 31.9302H0V27.3687C0 24.576 0 21.7647 0 18.9533C0 17.8176 0.431352 16.9425 1.36595 16.3468C1.83325 16.0489 2.35446 15.9558 2.89365 15.9558C6.14677 15.9558 9.38191 15.9558 12.635 15.9558C15.8881 15.9558 18.7998 15.9558 21.8911 15.9558C23.6165 15.9558 25.0184 15.2483 26.0429 13.7961C27.5346 11.655 27.1752 8.65745 25.2161 6.9632C24.2456 6.10676 23.1312 5.71578 21.8552 5.71578C19.8422 5.71578 17.8472 5.71578 15.8342 5.71578H12.5092H5.80528V7.68931H0.071892V0H21.8552C24.5691 0 26.9775 0.912291 28.9904 2.81135C31.1472 4.84073 32.3514 7.3728 32.4233 10.3889C32.5311 14.578 30.8057 17.8176 27.4268 20.0704V20.089Z" fill="white"/>
<path d="M107.744 20.089C106.054 21.2061 104.167 21.6902 102.172 21.6902C96.834 21.6902 91.4781 21.6902 86.1401 21.6902H85.8166V22.0253C85.8166 24.3526 85.8166 26.6799 85.8166 29.0071C85.8166 29.0071 85.8166 29.0071 85.8166 29.0257V31.9302H83.6778C83.3183 32.0233 82.9409 32.0233 82.5455 31.9302H80.3168V27.3687C80.3168 24.576 80.3168 21.7647 80.3168 18.9533C80.3168 17.8176 80.7482 16.9425 81.6828 16.3468C82.1501 16.0489 82.6713 15.9558 83.2105 15.9558C86.4636 15.9558 89.6987 15.9558 92.9519 15.9558C96.205 15.9558 99.1166 15.9558 102.208 15.9558C103.933 15.9558 105.335 15.2483 106.36 13.7961C107.851 11.655 107.492 8.65745 105.533 6.9632C104.562 6.10676 103.448 5.71578 102.172 5.71578C100.159 5.71578 98.164 5.71578 96.151 5.71578H92.826H86.1221V7.68931H80.3887V0H102.172C104.886 0 107.294 0.912291 109.307 2.81135C111.464 4.84073 112.668 7.3728 112.74 10.3889C112.848 14.578 111.123 17.8176 107.744 20.0704V20.089Z" fill="white"/>
<path d="M304.402 18.8166C302.255 22.5041 304.368 27.3199 308.534 28.2621C309.022 28.3668 309.521 28.425 310.02 28.425C312.434 28.4366 314.848 28.425 317.263 28.425H317.448V28.1691C317.448 27.0989 317.448 25.4122 317.448 23.7836H311.541V20.2358H320.988C320.988 21.5967 320.988 24.9934 320.988 26.3544C320.988 27.7154 320.988 28.9368 320.988 30.228C320.988 31.0539 320.42 31.7518 319.619 31.938C319.456 31.9729 319.271 31.9845 319.108 31.9845C316.102 31.9845 313.096 32.0194 310.09 31.9845C305.993 31.9147 302.963 30.0302 301.048 26.4009C300.108 24.6212 299.829 22.6902 300.096 20.701C300.526 17.5952 302.081 15.1873 304.716 13.5006C305.935 12.7212 307.281 12.2443 308.72 12.0814C309.15 12.0349 309.579 12 310.008 12C312.957 12 318.04 12 321 12V15.5479C318.052 15.5479 312.98 15.5246 310.032 15.5479C307.559 15.5712 305.656 16.6646 304.402 18.805V18.8166Z" fill="white"/>
<path d="M274 31.9257V12.0578H277.55V31.9141H274V31.9257ZM295 30.1101C295 30.723 294.803 31.2434 294.315 31.625C293.654 32.1454 292.703 32.1223 292.076 31.5672C291.496 31.0468 290.928 30.5033 290.359 29.9713C287.609 27.404 283.166 23.287 280.428 20.7197V15.851C283.491 18.719 288.247 23.1135 291.31 25.9815C291.345 26.0162 291.38 26.0394 291.45 26.0972V25.889C291.45 22.2231 291.45 15.666 291.45 12H295C295 17.0653 295 25.0448 295 30.1101Z" fill="white"/>
<path d="M232.988 32H229.004C227.246 28.3206 225.09 23.8146 224.176 21.8235C223.496 20.3215 222.816 18.8195 222.113 17.3175C221.586 16.188 220.648 15.5942 219.406 15.5942C218.164 15.5942 217.25 16.188 216.723 17.3175C216.395 17.9928 216.09 18.6798 215.773 19.3667C214.402 22.3475 211.836 27.8782 209.937 31.9884H206C206.281 31.3712 206.562 30.7541 206.855 30.137C208.379 26.8186 211.871 19.2969 213.395 15.9785C214.25 14.1155 215.633 12.8347 217.613 12.2642C220.777 11.356 223.977 12.8463 225.371 15.862C227.059 19.5181 230.609 26.9118 233 32H232.988ZM219.453 26.3994L222.09 32H216.898L219.453 26.3994Z" fill="white"/>
<path d="M238 31.942V12H241.558V31.942H238ZM248.639 22.3828L258.861 32H253.657L243.853 22.7657L243.528 22.464L252.834 13.1485L253.982 12H259L248.627 22.3828H248.639Z" fill="white"/>
<path d="M179 25.2597C179 25.3411 179 25.434 179 25.5154C178.942 27.398 178.167 28.9785 176.79 30.2452C175.493 31.4306 173.954 32 172.195 32H163.724C161.976 32 160.426 31.4306 159.129 30.2452C157.972 29.1877 157.243 27.8977 157 26.4102H161.05C161.236 26.8867 161.537 27.3283 161.953 27.6769C162.578 28.2115 163.296 28.4555 164.117 28.4555C165.194 28.4555 165.332 28.4555 166.096 28.4555C166.478 28.4555 168.978 28.4555 169.279 28.4555H169.776C170.575 28.4555 170.702 28.4555 171.802 28.4555C172.623 28.4555 173.341 28.2115 173.966 27.6769C174.695 27.061 175.077 26.1662 175.088 25.2597V23.749H157V12H172.184C173.931 12 175.482 12.5694 176.778 13.7548C177.935 14.8123 178.664 16.1023 178.907 17.5898H174.857C174.672 17.1133 174.371 16.6717 173.966 16.3231C173.341 15.7885 172.623 15.5445 171.802 15.5445C170.505 15.5445 170.575 15.5445 169.279 15.5445H167.138C165.552 15.5445 162.729 15.5445 160.564 15.5445V20.2626H178.988V25.2481L179 25.2597Z" fill="white"/>
<path d="M184 15.6067V12H205V15.5951H184V15.6067ZM192.756 32V18.1896H196.314V32H192.756Z" fill="white"/>
<path d="M264 32V12H268V31.9884H264V32Z" fill="white"/>
</svg>
