<svg width="31" height="25" viewBox="0 0 31 25" fill="none" xmlns="http://www.w3.org/2000/svg">
<path d="M27.6071 25H3.39288C1.52205 25 0 23.4868 0 21.6269V3.37306C0 1.51315 1.52205 0 3.39288 0H27.7327C28.097 0 28.3923 0.293602 28.3923 0.655721C28.3923 1.01784 28.097 1.31144 27.7327 1.31144H3.39288C2.24957 1.31144 1.31915 2.23643 1.31915 3.37306C1.31915 4.50968 2.24957 5.43467 3.39288 5.43467H27.6071C29.478 5.43467 31 6.94782 31 8.80773V21.6269C31 23.4868 29.478 25 27.6071 25ZM1.31915 6.04108V21.6269C1.31915 22.7636 2.24957 23.6886 3.39288 23.6886H27.6071C28.7504 23.6886 29.6809 22.7636 29.6809 21.6269V8.80773C29.6809 7.6711 28.7504 6.74611 27.6071 6.74611H3.39288C2.61253 6.74611 1.89306 6.48293 1.31915 6.04108Z" fill="#FFB11D"/>
</svg>
